<svg xmlns="http://www.w3.org/2000/svg" width="64" height="64"><g class="nc-icon-wrapper" fill="#111111"><g class="nc-icon-wrapper" fill="#111111"><path d="M21 1H1v20h20V1zm-2 18H3V3h16v16z"></path><path data-color="color-2" d="M5 5h12v12H5z"></path><path d="M1 63h20V43H1v20zm2-18h16v16H3V45z"></path><path data-color="color-2" d="M5 47h12v12H5z"></path><path d="M43 1v20h20V1H43zm18 18H45V3h16v16z"></path><path data-color="color-2" d="M47 5h12v12H47z"></path><path d="M41 56h-2v6h24v-2H41zm-10-5h-5v-7h-2v9h5v5h-5v2h5v2h7v-2h-5zm0-27H19v2h14v-8h3v-5h-9V6h4v3h9V1h-2v6h-5V1h-8v14h6v3h-6v2h6zM6 31h10v4h-6v2h6v3h11v-2h-9v-9h-5v-4h-2v4H8v-5H1v2h5z"></path><path d="M41 48v4h-4V41h-2v-4h-3v-8H22v6h2v-4h6v12h5v11h13v3h5v-9h-5v4h-5v-4z"></path><path d="M61 36H47v6h-4v-6h-2v8h8v-6h5v5h2v-5h5v10h-5v8h7v-2h-5v-4h5V32h-2zm-15-6h-6v-8h-2v10h16v-2h-6v-4h6v-2H43v2h3zM1 35h6v6H1zm56-11h6v6h-6z"></path></g></g></svg>