<svg xmlns="http://www.w3.org/2000/svg" xmlns:xlink="http://www.w3.org/1999/xlink" x="0px" y="0px" viewBox="0 0 64 64" width="64" height="64"><g class="nc-icon-wrapper" fill="#111111"><path fill="#111111" d="M14,24h2h31h3c5.514,0,10-4.486,10-10S55.514,4,50,4S40,8.486,40,14v6H24v-6c0-5.514-4.486-10-10-10 S4,8.486,4,14S8.486,24,14,24z M44,14c0-3.309,2.691-6,6-6s6,2.691,6,6s-2.691,6-6,6h-6V14z M14,8c3.309,0,6,2.691,6,6v6h-6 c-3.309,0-6-2.691-6-6S10.691,8,14,8z"></path> <path fill="#111111" d="M50,40h-6V26h-4v14H24V26h-4v14h-6C8.486,40,4,44.486,4,50s4.486,10,10,10s10-4.486,10-10v-4h-4v4 c0,3.309-2.691,6-6,6s-6-2.691-6-6s2.691-6,6-6h4h28h4c3.309,0,6,2.691,6,6s-2.691,6-6,6s-6-2.691-6-6v-4h-4v4 c0,5.514,4.486,10,10,10s10-4.486,10-10S55.514,40,50,40z"></path></g></svg>