<svg xmlns="http://www.w3.org/2000/svg" xmlns:xlink="http://www.w3.org/1999/xlink" x="0px" y="0px" viewBox="0 0 64 64" width="64" height="64"><g class="nc-icon-wrapper" fill="#111111"><path data-cap="butt" data-color="color-2" fill="none" stroke="#111111" stroke-width="2" stroke-miterlimit="10" d="M32,23v-6 c0-8.284,6.716-15,15-15h0c8.284,0,15,6.716,15,15v0c0,8.284-6.716,15-15,15H32H17C8.716,32,2,38.716,2,47v0c0,8.284,6.716,15,15,15 h0c8.284,0,15-6.716,15-15v-6" stroke-linejoin="miter" stroke-linecap="butt"></path> <polyline fill="none" stroke="#111111" stroke-width="2" stroke-linecap="square" stroke-miterlimit="10" points="41,14 32,23 23,14 " stroke-linejoin="miter"></polyline> <polyline fill="none" stroke="#111111" stroke-width="2" stroke-linecap="square" stroke-miterlimit="10" points="41,50 32,41 23,50 " stroke-linejoin="miter"></polyline></g></svg>