<svg xmlns="http://www.w3.org/2000/svg" xmlns:xlink="http://www.w3.org/1999/xlink" x="0px" y="0px" viewBox="0 0 48 48" width="48" height="48"><g class="nc-icon-wrapper" fill="#111111"><polyline points="23.995 41.998 18 40 2 44 2 8 18 4 30 8 46 4 46 20" fill="none" stroke="#111111" stroke-linecap="square" stroke-miterlimit="10" stroke-width="2" stroke-linejoin="miter"></polyline> <path d="M29.223,34A9,9,0,0,1,38,27a8.9,8.9,0,0,1,8,5" fill="none" stroke="#111111" stroke-miterlimit="10" stroke-width="2" data-cap="butt" data-color="color-2" stroke-linecap="butt" stroke-linejoin="miter"></path> <polyline points="46 26 46 32 40 32" fill="none" stroke="#111111" stroke-linecap="square" stroke-miterlimit="10" stroke-width="2" data-color="color-2" stroke-linejoin="miter"></polyline> <path d="M46.777,38A9,9,0,0,1,38,45a8.9,8.9,0,0,1-8-5" fill="none" stroke="#111111" stroke-miterlimit="10" stroke-width="2" data-cap="butt" data-color="color-2" stroke-linecap="butt" stroke-linejoin="miter"></path> <polyline points="30 46 30 40 36 40" fill="none" stroke="#111111" stroke-linecap="square" stroke-miterlimit="10" stroke-width="2" data-color="color-2" stroke-linejoin="miter"></polyline></g></svg>