<svg xmlns="http://www.w3.org/2000/svg" xmlns:xlink="http://www.w3.org/1999/xlink" x="0px" y="0px" viewBox="0 0 64 64" width="64" height="64"><g class="nc-icon-wrapper" fill="#111111"><path d="M32,63A31,31,0,0,1,32,1a1,1,0,0,1,0,2A29,29,0,1,0,61,32a1,1,0,0,1,2,0A31.035,31.035,0,0,1,32,63Z" fill="#111111"></path> <path d="M60.922,25a1,1,0,0,1-.963-.734A29.116,29.116,0,0,0,39.737,4.044a1,1,0,1,1,.533-1.928A31.123,31.123,0,0,1,61.887,23.739,1,1,0,0,1,60.922,25Z" fill="#111111" data-color="color-2"></path> <path d="M24,53.5a.99.99,0,0,1-.363-.068A23.084,23.084,0,0,1,10.566,40.359a1,1,0,1,1,1.863-.727A21.078,21.078,0,0,0,24.364,51.569,1,1,0,0,1,24,53.5Z" fill="#111111" data-color="color-2"></path> <path d="M32,55a1,1,0,0,1,0-2A21,21,0,1,0,11,32a1,1,0,0,1-2,0A23,23,0,1,1,32,55Z" fill="#111111"></path> <path d="M32,47a15,15,0,0,1,0-30,1,1,0,0,1,0,2A13,13,0,1,0,45,32a1,1,0,0,1,2,0A15.016,15.016,0,0,1,32,47Z" fill="#111111"></path> <path d="M32,39a1,1,0,0,1,0-2,5,5,0,1,0-5-5,1,1,0,0,1-2,0,7,7,0,1,1,7,7Z" fill="#111111" data-color="color-2"></path> <circle cx="32" cy="32" r="1" fill="#111111"></circle></g></svg>