<svg xmlns="http://www.w3.org/2000/svg" xmlns:xlink="http://www.w3.org/1999/xlink" x="0px" y="0px" viewBox="0 0 64 64" width="64" height="64"><g class="nc-icon-wrapper" fill="#111111"><path data-color="color-2" fill="#111111" d="M21.502,45.241h-9.678v-1.738l3.682-3.701c1.087-1.113,1.809-1.903,2.163-2.368 s0.613-0.903,0.776-1.313s0.244-0.85,0.244-1.318c0-0.645-0.193-1.152-0.581-1.523s-0.923-0.557-1.606-0.557 c-0.547,0-1.076,0.101-1.587,0.303s-1.102,0.566-1.772,1.094l-1.24-1.514c0.794-0.67,1.565-1.146,2.314-1.426s1.546-0.42,2.393-0.42 c1.328,0,2.393,0.347,3.193,1.04s1.201,1.626,1.201,2.798c0,0.645-0.115,1.256-0.347,1.836s-0.586,1.177-1.064,1.792 s-1.274,1.447-2.388,2.495l-2.48,2.402v0.098h6.777V45.241z"></path> <path data-color="color-2" fill="#111111" d="M33.426,42.126h-1.924v3.115h-2.236v-3.115h-6.523v-1.768l6.523-9.434h2.236v9.297h1.924 V42.126z M29.266,40.222v-3.584c0-1.276,0.032-2.321,0.098-3.135h-0.078c-0.183,0.43-0.469,0.951-0.859,1.562l-3.545,5.156H29.266z"></path> <path data-color="color-2" fill="#111111" d="M41.414,30.964l-5.312,14.277h-2.168l5.322-14.277H41.414z"></path> <path data-color="color-2" fill="#111111" d="M44.08,45.241l5.645-12.236h-7.422v-2.021h9.873v1.602l-5.615,12.656H44.08z"></path> <path fill="#111111" d="M61,16H3c-1.105,0-2,0.895-2,2v40c0,1.105,0.895,2,2,2h58c1.105,0,2-0.895,2-2V18C63,16.895,62.105,16,61,16 z M61,57c0,0.552-0.448,1-1,1H4c-0.552,0-1-0.448-1-1V19c0-0.552,0.448-1,1-1h56c0.552,0,1,0.448,1,1V57z"></path> <path data-color="color-2" fill="#111111" d="M21.036,14l7.354-6.303C29.03,9.054,30.4,10,32,10s2.97-0.946,3.61-2.303L42.964,14h3.072 L35.934,5.341C35.618,3.447,33.983,2,32,2s-3.618,1.447-3.934,3.341L17.964,14H21.036z"></path></g></svg>