<svg xmlns="http://www.w3.org/2000/svg" xmlns:xlink="http://www.w3.org/1999/xlink" x="0px" y="0px" viewBox="0 0 64 64" width="64" height="64"><g class="nc-icon-wrapper" fill="#111111"><path data-cap="butt" fill="none" stroke="#111111" stroke-width="2" stroke-miterlimit="10" d="M9.65608,11.99995 c-6.0876,6.80578-9.00235,16.29713-7.0586,25.93714" stroke-linejoin="miter" stroke-linecap="butt"></path> <path data-cap="butt" fill="none" stroke="#111111" stroke-width="2" stroke-miterlimit="10" d="M49.00087,7.31354 C42.54296,2.86669,34.35942,0.94268,26.0658,2.6149c-4.51777,0.91094-8.59196,2.79291-12.04907,5.38478" stroke-linejoin="miter" stroke-linecap="butt"></path> <path data-cap="butt" fill="none" stroke="#111111" stroke-width="2" stroke-miterlimit="10" d="M61.38657,26.08291 c-1.19315-5.9174-4.05211-11.07374-7.99014-15.07921" stroke-linejoin="miter" stroke-linecap="butt"></path> <path data-cap="butt" fill="none" stroke="#111111" stroke-width="2" stroke-miterlimit="10" d="M61.99453,32.61337 c0.04115-2.1501-0.14925-4.33803-0.59176-6.53353" stroke-linejoin="miter" stroke-linecap="butt"></path> <path data-cap="butt" fill="none" stroke="#111111" stroke-width="2" stroke-miterlimit="10" d="M2.61368,37.93404 c0.08688,0.43048,0.18251,0.85701,0.2869,1.2794" stroke-linejoin="miter" stroke-linecap="butt"></path> <path data-cap="butt" fill="none" stroke="#111111" stroke-width="2" stroke-miterlimit="10" d="M24.25067,60.98348 c6.71779-7.64615,9.91628-18.2284,7.74944-28.975" stroke-linejoin="miter" stroke-linecap="butt"></path> <path data-cap="butt" data-color="color-2" fill="none" stroke="#111111" stroke-width="2" stroke-miterlimit="10" d="M39.90976,34.09335 c-0.13398-1.18549-0.32023-2.37517-0.56045-3.5665l0.00854-0.00305c-0.82026-4.06799-4.78251-6.70085-8.8505-5.8805 c-4.06776,0.82026-6.70051,4.78273-5.88005,8.85083c0.21646,1.81836,2.57929,14.67773-7.79585,24.38475" stroke-linejoin="miter" stroke-linecap="butt"></path> <path data-cap="butt" data-color="color-2" fill="none" stroke="#111111" stroke-width="2" stroke-miterlimit="10" d="M32.95015,61.98252 c4.32364-6.31834,6.89756-13.82745,7.19234-21.73355" stroke-linejoin="miter" stroke-linecap="butt"></path> <path data-cap="butt" fill="none" stroke="#111111" stroke-width="2" stroke-miterlimit="10" d="M17.52998,28.00046 c-0.61248,2.20297-0.72888,4.57967-0.24594,6.97473l0.0175-0.00338c1.42208,7.05242-1.31398,13.97607-6.51756,18.23837" stroke-linejoin="miter" stroke-linecap="butt"></path> <path data-cap="butt" fill="none" stroke="#111111" stroke-width="2" stroke-miterlimit="10" d="M42.75066,60.00174 c4.52013-9.27847,6.1453-20.05866,3.94804-30.9566c-0.53204-2.5868-4.88197-14.32342-17.67166-11.74466 c-3.48119,0.70196-6.43603,2.55614-8.54747,5.0854" stroke-linejoin="miter" stroke-linecap="butt"></path> <path data-cap="butt" data-color="color-2" fill="none" stroke="#111111" stroke-width="2" stroke-miterlimit="10" d="M27.00009,10.07472 C15.13252,12.77024,7.52196,24.45979,9.94076,36.45614l0.01159-0.00274c0.84061,4.16986-0.73862,8.26508-3.76989,10.8336" stroke-linejoin="miter" stroke-linecap="butt"></path> <path data-cap="butt" data-color="color-2" fill="none" stroke="#111111" stroke-width="2" stroke-miterlimit="10" d="M53.27843,53.1327 c2.1585-8.09633,2.53777-16.79955,0.76947-25.56917l-0.00417-0.00033C51.95811,17.21929,43.08718,9.97537,32.99995,9.53113" stroke-linejoin="miter" stroke-linecap="butt"></path></g></svg>