<svg xmlns="http://www.w3.org/2000/svg" xmlns:xlink="http://www.w3.org/1999/xlink" x="0px" y="0px" viewBox="0 0 64 64" width="64" height="64"><g class="nc-icon-wrapper" fill="#111111"><path fill="none" stroke="#111111" stroke-width="2" stroke-linecap="square" stroke-miterlimit="10" d="M50.71655,26.32043 C51.52087,25.07263,52,23.59485,52,22c0-4.41833-3.58167-8-8-8h-2.20154C41.92969,13.35364,42,12.68506,42,12 c0-5.52283-4.47717-10-10-10S22,6.47717,22,12c0,0.68506,0.07031,1.35364,0.20154,2H20c-4.41833,0-8,3.58167-8,8 c0,1.59485,0.47913,3.07263,1.28345,4.32043C7.96667,27.55286,4,32.30835,4,38c0,6.62744,5.37256,12,12,12h32 c6.62744,0,12-5.37256,12-12C60,32.30835,56.03333,27.55286,50.71655,26.32043z" stroke-linejoin="miter"></path> <line data-cap="butt" data-color="color-2" fill="none" stroke="#111111" stroke-width="2" stroke-miterlimit="10" x1="32" y1="22" x2="32" y2="62" stroke-linejoin="miter" stroke-linecap="butt"></line> <line data-cap="butt" data-color="color-2" fill="none" stroke="#111111" stroke-width="2" stroke-miterlimit="10" x1="20" y1="62" x2="44" y2="62" stroke-linejoin="miter" stroke-linecap="butt"></line> <line data-cap="butt" data-color="color-2" fill="none" stroke="#111111" stroke-width="2" stroke-miterlimit="10" x1="32" y1="45" x2="42" y2="35" stroke-linejoin="miter" stroke-linecap="butt"></line> <line data-cap="butt" data-color="color-2" fill="none" stroke="#111111" stroke-width="2" stroke-miterlimit="10" x1="22" y1="29" x2="32" y2="39" stroke-linejoin="miter" stroke-linecap="butt"></line></g></svg>