<svg xmlns="http://www.w3.org/2000/svg" xmlns:xlink="http://www.w3.org/1999/xlink" x="0px" y="0px" viewBox="0 0 48 48" width="48" height="48"><g class="nc-icon-wrapper" fill="#111111"><path fill="none" stroke="#111111" stroke-width="2" stroke-linecap="square" stroke-miterlimit="10" d="M14,34.1C14,28,24,18,24,18 s10,10,10,16.1c0,6.3-5.1,9.9-10,9.9S14,40.4,14,34.1z" stroke-linejoin="miter"></path> <path data-color="color-2" fill="none" stroke="#111111" stroke-width="2" stroke-linecap="square" stroke-miterlimit="10" d="M34,13.9 c0-3.7,6-9.9,6-9.9s6,6.2,6,9.9c0,3.9-3.1,6.1-6,6.1S34,17.8,34,13.9z" stroke-linejoin="miter"></path> <path data-color="color-2" fill="none" stroke="#111111" stroke-width="2" stroke-linecap="square" stroke-miterlimit="10" d="M2,13.9 C2,10.2,8,4,8,4s6,6.2,6,9.9c0,3.9-3.1,6.1-6,6.1S2,17.8,2,13.9z" stroke-linejoin="miter"></path></g></svg>