<?xml version="1.0" encoding="utf-8"?>
<!-- Generator: Adobe Illustrator 12.0.0, SVG Export Plug-In . SVG Version: 6.00 Build 51448)  -->
<!DOCTYPE svg PUBLIC "-//W3C//DTD SVG 1.1//EN" "http://www.w3.org/Graphics/SVG/1.1/DTD/svg11.dtd" [
	<!ENTITY ns_svg "http://www.w3.org/2000/svg">
	<!ENTITY ns_xlink "http://www.w3.org/1999/xlink">
]>
<svg  version="1.1" id="Layer_1" xmlns="&ns_svg;" xmlns:xlink="&ns_xlink;" width="385.53" height="332.671"
	 viewBox="0 0 385.53 332.671" overflow="visible" enable-background="new 0 0 385.53 332.671" xml:space="preserve">
<rect x="76.687" y="63.901" transform="matrix(0.7071 0.7071 -0.7071 0.7071 169.7699 -77.8109)" fill="#D4EAD2" stroke="#000000" width="204.247" height="204.246"/>
<rect x="106.612" y="94.75" fill="#F5E0CD" stroke="#000000" width="144.398" height="144.398"/>
<text transform="matrix(1 0 0 1 159.6138 14.7319)" font-family="'TimesNewRomanPSMT'" font-size="17.7174">FIRE</text>
<text transform="matrix(1 0 0 1 326.478 171.4775)" font-family="'TimesNewRomanPSMT'" font-size="17.7174">EARTH</text>
<text transform="matrix(1 0 0 1 149.2017 328.8467)" font-family="'TimesNewRomanPSMT'" font-size="17.7174">WATER</text>
<text transform="matrix(1 0 0 1 0 171.4775)" font-family="'TimesNewRomanPSMT'" font-size="17.7174">AIR</text>
<text transform="matrix(1 0 0 1 72.3506 89.2979)" font-family="'TimesNewRomanPSMT'" font-size="16.025">hot</text>
<text transform="matrix(1 0 0 1 266.6401 89.2964)" font-family="'TimesNewRomanPSMT'" font-size="16.025">dry</text>
<text transform="matrix(1 0 0 1 263.5015 253.5225)" font-family="'TimesNewRomanPSMT'" font-size="16.025">cold</text>
<text transform="matrix(1 0 0 1 71.0205 253.5225)" font-family="'TimesNewRomanPSMT'" font-size="16.025">wet</text>
</svg>
